{
    "asset" : {
        "generator" : "Khronos glTF Blender I/O v1.6.16",
        "version" : "2.0"
    },
    "scene" : 0,
    "scenes" : [
        {
            "name" : "Scene",
            "nodes" : [
                0
            ]
        }
    ],
    "nodes" : [
        {
            "mesh" : 0,
            "name" : "node_damagedHelmet_-6514",
            "rotation" : [
                0.7071068286895752,
                0,
                0,
                0.7071068286895752
            ]
        }
    ],
    "materials" : [
        {
            "emissiveFactor" : [
                1.0,
                1.0,
                1.0
            ],
            "emissiveTexture" : {
                "index" : 2
            },
            "name" : "Material_MR",
            "normalTexture" : {
                "index" : 4
            },
            "occlusionTexture" : {
                "index" : 3
            },
            "pbrMetallicRoughness" : {
                "baseColorTexture" : {
                    "index" : 0
                },
                "metallicRoughnessTexture" : {
                    "index" : 1
                }
            }
        }
    ],
    "meshes" : [
        {
            "name" : "mesh_helmet_LP_13930damagedHelmet",
            "primitives" : [
                {
                    "attributes" : {
                        "POSITION" : 0,
                        "NORMAL" : 1,
                        "TANGENT" : 2,
                        "TEXCOORD_0" : 3
                    },
                    "indices" : 4,
                    "material" : 0
                }
            ]
        }
    ],
    "textures" : [
        {
            "sampler" : 0,
            "source" : 0
        },
        {
            "sampler" : 0,
            "source" : 1
        },
        {
            "sampler" : 0,
            "source" : 2
        },
        {
            "sampler" : 0,
            "source" : 3
        },
        {
            "sampler" : 0,
            "source" : 4
        }
    ],
    "images" : [
        {
            "uri" : "Default_albedo.dds"
        },
        {
            "uri" : "Default_metalRoughness.dds"
        },
        {
            "uri" : "Default_emissive.dds"
        },
        {
            "uri" : "Default_AO.dds"
        },
        {
            "uri" : "Default_normal.dds"
        }
    ],
    "accessors" : [
        {
            "bufferView" : 0,
            "componentType" : 5126,
            "count" : 14890,
            "max" : [
                0.9424954056739807,
                0.8128451108932495,
                0.900973916053772
            ],
            "min" : [
                -0.9474585652351379,
                -1.18715500831604,
                -0.9009949564933777
            ],
            "type" : "VEC3"
        },
        {
            "bufferView" : 1,
            "componentType" : 5126,
            "count" : 14890,
            "type" : "VEC3"
        },
        {
            "bufferView" : 2,
            "componentType" : 5126,
            "count" : 14890,
            "type" : "VEC4"
        },
        {
            "bufferView" : 3,
            "componentType" : 5126,
            "count" : 14890,
            "type" : "VEC2"
        },
        {
            "bufferView" : 4,
            "componentType" : 5123,
            "count" : 46356,
            "type" : "SCALAR"
        }
    ],
    "bufferViews" : [
        {
            "buffer" : 0,
            "byteLength" : 178680,
            "byteOffset" : 0
        },
        {
            "buffer" : 0,
            "byteLength" : 178680,
            "byteOffset" : 178680
        },
        {
            "buffer" : 0,
            "byteLength" : 238240,
            "byteOffset" : 357360
        },
        {
            "buffer" : 0,
            "byteLength" : 119120,
            "byteOffset" : 595600
        },
        {
            "buffer" : 0,
            "byteLength" : 92712,
            "byteOffset" : 714720
        }
    ],
    "samplers" : [
        {
            "magFilter" : 9729,
            "minFilter" : 9987
        }
    ],
    "buffers" : [
        {
            "byteLength" : 807432,
            "uri" : "DamagedHelmet.bin"
        }
    ]
}
